<?xml version="1.0" encoding="UTF-8" standalone="no"?>
<!-- Created with Inkscape (http://www.inkscape.org/) -->

<svg
   width="90.311104mm"
   height="90.311119mm"
   viewBox="0 0 90.311104 90.311119"
   version="1.1"
   id="svg5"
   xml:space="preserve"
   xmlns:inkscape="http://www.inkscape.org/namespaces/inkscape"
   xmlns:sodipodi="http://sodipodi.sourceforge.net/DTD/sodipodi-0.dtd"
   xmlns="http://www.w3.org/2000/svg"
   xmlns:svg="http://www.w3.org/2000/svg"><sodipodi:namedview
     id="namedview7"
     pagecolor="#ffffff"
     bordercolor="#000000"
     borderopacity="0.25"
     inkscape:showpageshadow="2"
     inkscape:pageopacity="0.0"
     inkscape:pagecheckerboard="0"
     inkscape:deskcolor="#d1d1d1"
     inkscape:document-units="mm"
     showgrid="false" /><defs
     id="defs2" /><g
     inkscape:label="Layer 1"
     inkscape:groupmode="layer"
     id="layer1"
     transform="translate(-30.555203,-27.690429)"><path
       style="fill:#000000;stroke-width:0.352778"
       d="m 30.555203,72.845984 c 0,-45.155555 0,-45.155555 45.15555,-45.155555 45.155557,0 45.155557,0 45.155557,45.155555 0,45.155556 0,45.155556 -45.155557,45.155556 -45.15555,0 -45.15555,0 -45.15555,-45.155556 z m 31.47243,37.306246 c -0.37835,-0.63059 -1.09472,-1.8609 -1.59196,-2.73402 -0.49723,-0.87313 -1.23972,-2.46063 -1.64997,-3.52778 -0.41026,-1.06715 -0.97683,-2.44052 -1.25905,-3.05193 -0.28221,-0.6114 -0.51312,-1.196951 -0.51312,-1.301215 0,-0.104267 -1.35831,-3.255274 -3.01846,-7.00224 -1.66015,-3.746969 -3.78541,-8.241422 -4.7228,-9.987672 -0.93739,-1.74625 -2.26682,-4.206875 -2.95428,-5.468055 -0.68746,-1.261181 -1.80859,-3.83775 -2.4914,-5.725707 -0.6828,-1.887961 -2.0432,-4.790017 -3.02309,-6.449018 -0.9799,-1.659001 -1.78164,-3.165417 -1.78164,-3.34759 0,-0.182174 -0.33456,-0.931366 -0.74346,-1.664872 -0.40891,-0.733506 -0.80578,-1.399792 -0.88195,-1.480637 -0.0762,-0.08084 -0.13847,11.785719 -0.13847,26.370137 0,26.517129 0,26.517129 12.72877,26.517129 12.72877,0 12.72877,0 12.04088,-1.14653 z m 52.135897,-3.96875 c 0,-4.62135 -0.0596,-5.11911 -0.61736,-5.15506 -0.33955,-0.0219 -3.63361,-0.0182 -7.32014,0.008 -4.25925,0.0304 -7.924537,0.25198 -10.054167,0.60782 -1.84326,0.30798 -4.93888,0.92445 -6.87916,1.36992 -1.94028,0.44547 -5.43278,1.15955 -7.76111,1.58685 -2.32834,0.4273 -5.34459,1.06235 -6.70278,1.41121 -1.3582,0.34887 -4.11269,1.15638 -6.12109,1.79446 -3.55856,1.13057 -3.66168,1.14266 -4.04493,0.474 -0.21631,-0.37738 -0.6479,-1.42778 -0.95911,-2.33423 -0.34509,-1.00518 -1.34422,-2.48887 -2.56124,-3.80339 -1.09748,-1.18541 -2.41117,-2.864707 -2.9193,-3.731768 -0.50813,-0.867047 -0.98112,-1.576462 -1.05109,-1.576462 -0.07,0 0.10785,0.674688 0.39515,1.499306 0.28731,0.824618 0.74413,1.975554 1.01517,2.557644 0.27103,0.58208 0.82238,1.89691 1.22522,2.92185 0.40284,1.02493 0.99627,2.29493 1.31874,2.82222 0.32247,0.52728 0.97935,1.55402 1.45973,2.28162 0.48039,0.7276 1.00025,1.32292 1.15526,1.32292 0.15501,0 0.72873,-0.18119 1.27494,-0.40263 0.54621,-0.22145 2.34248,-0.43456 3.99172,-0.47358 1.72681,-0.0409 4.79409,-0.4761 7.23194,-1.02619 2.32833,-0.52539 4.94771,-1.10582 5.82083,-1.28984 0.87313,-0.18402 2.93688,-0.6514 4.58611,-1.03863 1.64924,-0.38722 4.58612,-0.94518 6.52639,-1.2399 1.94028,-0.29473 5.19466,-0.75394 7.231947,-1.02048 2.03729,-0.26654 4.02166,-0.47425 4.40972,-0.46157 0.38806,0.0127 1.97556,-0.0269 3.52778,-0.0879 1.55222,-0.061 2.46503,-0.17974 2.02847,-0.26382 -0.43656,-0.0841 -0.79375,-0.37997 -0.79375,-0.65752 0,-0.29608 0.32802,-0.49353 0.79375,-0.47779 0.43656,0.0147 1.34937,0.22736 2.02847,0.47245 0.82485,0.29768 1.23472,0.66937 1.23472,1.11969 0,0.46047 -0.27948,0.70184 -0.88194,0.76169 -0.48507,0.0482 -2.94101,0.15909 -5.45764,0.24645 -2.51664,0.0874 -6.48539,0.41984 -8.819447,0.73886 -2.33406,0.31902 -6.14874,0.97293 -8.47708,1.45313 -2.32833,0.4802 -5.74146,1.17595 -7.58472,1.54612 -1.84326,0.37016 -4.46264,0.92304 -5.82083,1.22862 -1.3582,0.30557 -3.2632,0.7268 -4.23334,0.93605 -0.97013,0.20925 -2.7345,0.35714 -3.9208,0.32864 -1.18631,-0.0285 -2.53568,0.0997 -2.99861,0.28496 -0.54723,0.21895 7.82864,0.3446 23.94094,0.35914 24.782637,0.0224 24.782637,0.0224 24.782637,-5.09291 z M 71.653813,105.64 c 0.97014,-0.35353 2.95451,-0.88493 4.40972,-1.18089 1.45521,-0.29596 4.07458,-0.80193 5.82083,-1.12438 1.74625,-0.32245 4.7625,-0.94952 6.70278,-1.39348 1.94028,-0.44397 5.19465,-1.08754 7.23195,-1.43015 2.53075,-0.4256 5.268707,-0.601476 8.643047,-0.555191 2.71639,0.03726 5.7047,-0.03126 6.64069,-0.152231 1.50325,-0.194306 1.62673,-0.272069 1.05833,-0.666499 -0.3539,-0.24559 -1.4769,-0.880717 -2.49555,-1.41139 -1.01864,-0.530673 -1.85208,-1.178091 -1.85208,-1.438702 0,-0.352319 -0.24881,-0.399172 -0.97014,-0.182682 -0.53357,0.160136 -2.55764,0.574061 -4.49791,0.919829 -1.94028,0.345768 -4.877157,0.932702 -6.526387,1.3043 -1.64924,0.371595 -5.06236,1.12557 -7.58473,1.675496 -2.52236,0.54993 -5.77673,1.25349 -7.23194,1.56347 -1.45521,0.30998 -3.47927,0.8007 -4.49792,1.09049 -1.01864,0.28979 -2.68552,0.77762 -3.70416,1.08409 -1.01865,0.30646 -2.40771,0.68702 -3.08681,0.8457 -0.6791,0.15867 -1.75066,0.40402 -2.38125,0.54522 -1.00986,0.22613 -1.14653,0.16879 -1.14653,-0.48102 0,-0.40576 -0.59531,-1.68608 -1.32291,-2.84516 -0.72761,-1.15909 -2.0373,-3.256727 -2.91042,-4.661435 -0.87313,-1.404705 -2.18978,-3.257547 -2.92589,-4.117425 -0.73611,-0.859882 -1.97224,-2.855404 -2.74695,-4.434501 -0.77471,-1.579097 -2.27609,-4.211842 -3.3364,-5.850544 -1.06031,-1.638703 -2.25202,-3.861203 -2.64824,-4.938889 -0.39622,-1.077687 -0.95162,-2.459673 -1.23424,-3.071079 -0.28261,-0.611406 -0.51384,-1.27489 -0.51384,-1.47441 0,-0.199521 -0.72914,-1.921778 -1.62033,-3.82724 -0.89118,-1.905462 -2.02431,-4.337604 -2.51807,-5.404757 -0.49376,-1.067153 -1.5752,-2.813403 -2.40321,-3.880555 -0.82801,-1.067153 -2.17043,-3.338445 -2.98315,-5.047315 -1.0148,-2.133763 -1.41163,-3.370194 -1.26683,-3.94713 0.11597,-0.462051 0.0515,-0.938566 -0.14322,-1.058922 -0.21389,-0.132193 -0.35407,0.32823 -0.35407,1.162954 0,0.89451 0.43828,2.222632 1.24285,3.766215 0.68356,1.311438 1.6572,3.675567 2.16364,5.25362 0.50643,1.578054 1.23719,3.497468 1.62391,4.265367 0.38672,0.767898 1.23183,2.196648 1.87802,3.175 0.64618,0.978351 1.47694,2.175697 1.84611,2.660766 0.36918,0.48507 1.03064,1.588682 1.46991,2.452476 0.43927,0.86379 1.09916,2.443879 1.4664,3.511306 0.36725,1.067428 1.49282,3.853191 2.50126,6.190584 1.00844,2.337389 2.48762,5.440426 3.28706,6.895634 0.79944,1.455208 2.18977,4.155585 3.08962,6.000838 1.09459,2.244588 2.33347,4.112747 3.74316,5.644442 1.15889,1.25919 2.28781,2.76569 2.50873,3.34778 0.22091,0.58208 0.6183,1.56219 0.88309,2.17801 0.48144,1.11968 0.48144,1.11968 2.70481,0.40243 1.22285,-0.39449 3.01712,-1.00651 3.98726,-1.36004 z m 0.52917,-2.97171 c 1.4552,-0.45588 4.47145,-1.24404 6.70277,-1.75147 2.23132,-0.50744 4.69195,-1.069027 5.46806,-1.24798 0.77611,-0.178954 2.60173,-0.577663 4.05694,-0.886023 1.45521,-0.308356 3.12209,-0.699276 3.70417,-0.868705 0.58208,-0.169432 1.85208,-0.479781 2.82222,-0.689673 0.97014,-0.209889 3.90702,-0.783738 6.526387,-1.275218 2.61938,-0.491483 5.95313,-1.14742 7.40833,-1.457639 1.45521,-0.310222 2.88396,-0.637367 3.175,-0.726987 0.30525,-0.094 -0.28105,-0.491366 -1.38553,-0.939052 -1.05308,-0.426854 -1.97913,-0.969377 -2.05787,-1.205607 -0.0787,-0.236227 0.0685,-0.424325 0.3272,-0.417989 0.2587,0.0063 1.29372,0.296023 2.30004,0.643756 1.00632,0.347733 2.07788,0.838239 2.38125,1.090013 0.49951,0.414556 0.55158,-2.327226 0.55158,-29.042371 0,-29.500138 0,-29.500138 -18.961797,-29.476802 -18.25471,0.02247 -18.89603,0.04549 -17.19792,0.617361 0.97014,0.326714 1.92264,0.694795 2.11667,0.817958 0.19402,0.123163 1.46402,0.659124 2.82222,1.191025 1.35819,0.531902 3.31214,1.594205 4.34211,2.360674 1.02996,0.76647 2.59418,2.373633 3.47604,3.571475 0.88186,1.197841 1.84249,2.640205 2.13474,3.205252 0.29224,0.565048 1.08957,2.628798 1.77183,4.586111 0.82376,2.363239 1.24531,4.217246 1.25487,5.518929 0.0116,1.578035 -0.23778,2.454998 -1.27913,4.498341 -0.71143,1.395991 -1.2943,2.736413 -1.29527,2.978711 -0.001,0.242302 1.38811,2.498905 3.08681,5.014673 2.09896,3.108543 4.041167,5.482226 6.061687,7.408333 1.63522,1.558816 3.9371,3.812632 5.11527,5.008485 1.17818,1.19585 2.67882,2.46585 3.33475,2.822222 0.65592,0.356369 1.52905,0.841121 1.94027,1.077225 0.41123,0.236103 0.74768,0.632978 0.74768,0.881944 0,0.248966 -0.51593,0.679754 -1.14652,0.957305 -0.63059,0.277548 -1.14653,0.629151 -1.14653,0.781336 0,0.152188 0.3175,0.446623 0.70555,0.654304 0.38806,0.20768 0.70556,0.598886 0.70556,0.869346 0,0.316731 -0.72194,0.63518 -2.02847,0.894765 -1.11566,0.221664 -3.37785,0.793341 -5.02709,1.270395 -1.64923,0.477051 -3.48613,1.02132 -4.08199,1.209488 -0.59586,0.188165 -1.36689,0.342117 -1.713407,0.342117 -0.34652,0 -1.764,0.251971 -3.14995,0.559936 -1.38596,0.307968 -3.71055,0.855387 -5.16576,1.216487 -1.45521,0.3611 -3.75708,0.910682 -5.11527,1.221292 -1.3582,0.31061 -3.34257,0.783223 -4.40973,1.050251 -1.06715,0.267028 -3.21027,0.825899 -4.7625,1.241933 -1.55222,0.416034 -3.43187,0.908145 -4.177,1.093586 -0.74512,0.185442 -2.28815,0.730017 -3.42895,1.210177 -1.1408,0.48015 -2.31097,0.873 -2.60037,0.873 -0.3241,0 -0.67258,-0.57586 -0.9073,-1.499301 -0.20961,-0.824618 -0.56181,-1.859785 -0.78268,-2.300369 -0.22087,-0.440587 -1.08737,-1.604486 -1.92556,-2.586446 -0.83818,-0.981957 -1.52397,-2.032466 -1.52397,-2.334462 0,-0.301991 -1.42933,-3.434718 -3.17629,-6.96161 -1.74696,-3.526893 -3.46184,-6.719655 -3.81085,-7.095032 -0.34902,-0.375373 -1.35704,-1.952498 -2.24005,-3.50472 -0.88301,-1.552222 -2.23769,-3.854097 -3.01039,-5.115278 -0.7727,-1.26118 -2.00005,-3.432171 -2.72744,-4.824423 -0.7274,-1.392251 -1.56048,-2.62267 -1.85129,-2.734266 -0.29082,-0.111596 -0.4758,-0.08286 -0.41109,0.06385 0.0647,0.146712 0.69477,1.456507 1.4001,2.910657 0.70534,1.45415 1.75742,3.755158 2.33798,5.113352 0.58055,1.358194 1.56069,3.818819 2.17809,5.468055 0.6174,1.649237 1.97868,4.347987 3.02508,5.997223 1.0464,1.649236 2.58479,4.343731 3.41865,5.987764 0.83386,1.644036 2.07174,3.653846 2.75083,4.466248 0.6791,0.812398 1.71098,2.165576 2.29306,3.007063 0.58208,0.841485 1.35407,2.086049 1.71553,2.765701 0.36145,0.679647 1.16416,1.950104 1.78378,2.823224 0.61963,0.87313 1.23657,1.87796 1.37099,2.23296 0.19488,0.51468 0.47674,0.59992 1.39121,0.42072 0.63075,-0.1236 2.33745,-0.59772 3.79266,-1.0536 z m 0.0221,-4.198983 c 1.05501,-0.279238 2.63257,-0.741715 3.50569,-1.027723 0.87313,-0.286007 4.445,-1.183389 7.9375,-1.994179 3.4925,-0.810789 7.14375,-1.692412 8.11389,-1.959162 0.97014,-0.266745 3.03389,-0.739672 4.58611,-1.050949 1.55222,-0.311274 3.774717,-0.787044 4.938887,-1.057265 1.16417,-0.270217 3.22792,-0.805599 4.58611,-1.189736 1.3582,-0.384136 2.90601,-0.795528 3.43959,-0.914202 0.53357,-0.118675 0.97013,-0.354514 0.97013,-0.524083 0,-0.169573 -0.24065,-0.400664 -0.53479,-0.513535 -0.29414,-0.112872 -2.39758,0.114536 -4.6743,0.505347 -2.27674,0.390811 -5.995207,1.09861 -8.263267,1.572888 -2.26806,0.474274 -4.72868,1.092369 -5.46805,1.373544 -0.73937,0.28117 -2.75068,0.846469 -4.46959,1.256217 -1.7189,0.409747 -4.73515,1.043075 -6.70277,1.407396 -1.96763,0.364317 -5.4825,1.377297 -7.81084,2.251061 -4.23333,1.588664 -4.23333,1.588664 -5.0606,0.821111 -0.455,-0.422155 -1.07448,-1.243803 -1.37663,-1.825886 -0.30215,-0.582083 -1.26699,-1.931458 -2.14408,-2.998611 -0.8771,-1.067153 -1.48793,-1.649483 -1.3574,-1.294063 0.13052,0.355417 0.23732,0.779127 0.23732,0.941575 0,0.16245 0.78135,1.211008 1.73633,2.330129 1.0638,1.246635 1.96102,2.749077 2.31641,3.878953 0.58007,1.844186 0.58007,1.844186 2.07811,1.181534 0.82392,-0.364458 2.36122,-0.891123 3.41623,-1.170361 z m 41.958467,-1.966292 c 0,-2.448521 0,-2.448521 -0.97014,-1.942722 -0.53358,0.27819 -1.7242,0.606728 -2.64584,0.730084 -0.92163,0.123356 -1.66987,0.322894 -1.66274,0.443417 0.007,0.120523 1.15805,0.890415 2.55764,1.710863 1.39957,0.820452 2.58438,1.495139 2.63288,1.499305 0.0485,0.0042 0.0882,-1.094256 0.0882,-2.440947 z M 70.342043,96.154944 c 1.10954,-0.373963 2.81109,-1.023423 3.78123,-1.44325 0.97014,-0.419823 3.43077,-1.062295 5.46806,-1.427712 2.03729,-0.365418 5.01024,-0.982691 6.60656,-1.37172 1.59632,-0.38903 3.89819,-1.026869 5.11528,-1.417426 1.21708,-0.390557 3.72101,-1.035212 5.56427,-1.432567 1.84326,-0.397359 5.723517,-1.122172 8.622797,-1.610699 2.89927,-0.488527 5.49872,-1.015443 5.77655,-1.170922 0.39854,-0.223033 0.3004,-0.423457 -0.46503,-0.949653 -0.53359,-0.366826 -2.73616,-2.318354 -4.89461,-4.336729 -2.15843,-2.018376 -4.69437,-4.479001 -5.63541,-5.468056 -0.941037,-0.989055 -2.954527,-3.592181 -4.474417,-5.784726 -1.51989,-2.192546 -2.82111,-4.159473 -2.89161,-4.370952 -0.0715,-0.214606 -0.84603,0.143944 -1.7528,0.811445 -1.30482,0.960519 -1.6067,1.37958 -1.53346,2.128732 0.0502,0.513027 0.40369,1.386152 0.78564,1.940277 0.38196,0.554123 1.04055,1.761561 1.46355,2.683193 0.42739,0.931203 1.0083,1.675694 1.30751,1.675694 0.29614,0 0.63596,0.254149 0.75516,0.564769 0.11919,0.310625 0.046,0.670289 -0.16268,0.799257 -0.24889,0.153822 0.10256,1.385426 1.0217,3.580367 0.7706,1.840237 1.35476,3.71295 1.29813,4.161585 -0.0649,0.51374 -0.59188,1.093964 -1.4237,1.567399 -1.32073,0.751699 -1.32073,0.751699 -2.34322,-0.227909 -0.56237,-0.538783 -1.69888,-2.236301 -2.52557,-3.77226 -0.8267,-1.535959 -1.67724,-2.791541 -1.89011,-2.790186 -0.21287,0.0014 -2.49557,0.713532 -5.07268,1.58261 -2.5771,0.869079 -5.03772,1.560449 -5.46805,1.536376 -0.43033,-0.02406 -1.22084,0.13366 -1.7567,0.350516 -0.53586,0.216853 -1.95649,1.0325 -3.15695,1.812544 -1.20047,0.780045 -2.55961,1.418266 -3.02033,1.418266 -0.60578,0 -0.80497,-0.169782 -0.71955,-0.613312 0.065,-0.337319 0.42036,-0.671516 0.78977,-0.742657 0.3694,-0.07114 1.55821,-0.731417 2.64178,-1.467277 1.08357,-0.735859 2.55979,-1.58183 3.28051,-1.879935 0.72071,-0.298104 1.75258,-0.535612 2.29305,-0.527798 0.54047,0.0078 2.69472,-0.553444 4.78722,-1.247249 2.09251,-0.693808 4.03376,-1.389736 4.31389,-1.546507 0.40504,-0.22667 0.0863,-0.897079 -1.55653,-3.273901 -1.25749,-1.819311 -2.25531,-2.93146 -2.55,-2.842165 -0.26627,0.08069 -1.516,0.428724 -2.77718,0.773416 -1.26118,0.344692 -3.18591,0.635864 -4.27718,0.647047 -1.09126,0.01118 -2.67876,0.264513 -3.52777,0.562949 -0.84902,0.298436 -2.17866,0.842161 -2.95478,1.208281 -0.77611,0.366117 -2.25196,0.909338 -3.27968,1.20716 -1.67508,0.485419 -1.88998,0.485701 -2.07531,0.0028 -0.11371,-0.296319 -0.0666,-0.660005 0.10468,-0.808189 0.17128,-0.148283 1.3433,-0.56388 2.60448,-0.923643 1.26118,-0.359763 2.61056,-0.866785 2.99861,-1.126712 0.38806,-0.25993 1.33722,-0.643322 2.10925,-0.85198 1.4037,-0.37938 1.4037,-0.37938 0.0256,-0.853157 -0.75797,-0.26058 -1.81257,-0.794974 -2.34355,-1.187549 -0.53099,-0.392575 -1.41561,-0.712456 -1.96585,-0.710851 -0.55022,0.0018 -1.56171,-0.0098 -2.24774,-0.0254 -0.68602,-0.01559 -1.85083,0.223834 -2.58846,0.532035 -1.05349,0.440178 -1.45054,0.469568 -1.85123,0.137026 -0.28055,-0.232833 -0.45145,-0.597948 -0.37978,-0.811364 0.0717,-0.213413 0.35477,-0.400989 0.62911,-0.416835 0.27434,-0.01584 1.44103,-0.313475 2.59264,-0.661399 1.5473,-0.467462 2.25102,-0.534426 2.69599,-0.256533 0.33119,0.206827 0.68546,0.292746 0.78728,0.190927 0.10182,-0.101815 -0.11922,-0.687786 -0.4912,-1.302152 -0.37198,-0.614366 -0.97169,-1.496625 -1.33269,-1.96057 -0.65636,-0.843534 -0.65636,-0.843534 -3.35444,0.08819 -1.48396,0.512441 -3.00482,0.931721 -3.37971,0.931721 -0.37488,0 -0.78402,-0.165703 -0.90919,-0.368229 -0.12517,-0.20253 -0.0372,-0.597655 0.19554,-0.878061 0.23272,-0.280409 0.54264,-0.435966 0.68871,-0.34569 0.14607,0.09028 1.47746,-0.243314 2.95864,-0.741317 1.48118,-0.498003 2.69088,-1.010177 2.68823,-1.138165 -0.003,-0.127987 -0.10054,-0.589892 -0.21753,-1.026454 -0.11699,-0.436563 -0.38014,-0.79375 -0.58477,-0.79375 -0.20462,0 -0.65065,-0.252131 -0.99116,-0.560291 -0.54015,-0.488831 -0.88115,-0.503923 -2.67361,-0.118334 -1.12997,0.243076 -2.49391,0.659509 -3.03098,0.925405 -0.85609,0.423849 -1.00321,0.413768 -1.19337,-0.08177 -0.11929,-0.310868 -0.0387,-0.743438 0.17916,-0.961265 0.21783,-0.217827 0.59609,-0.441466 0.84059,-0.496975 0.2445,-0.05551 1.31258,-0.342867 2.37351,-0.638572 1.06093,-0.295705 2.24132,-0.537645 2.6231,-0.537645 0.38177,0 1.07558,0.357188 1.5418,0.79375 0.84768,0.79375 0.84768,0.79375 0.61476,-0.617361 -0.1281,-0.776111 -0.38315,-2.204861 -0.56676,-3.175 -0.18361,-0.970139 -0.45117,-2.542559 -0.59458,-3.494268 -0.26073,-1.730379 -0.26073,-1.730379 -2.19845,-1.709702 -1.06575,0.01137 -2.73147,0.09051 -3.70161,0.175866 -0.97014,0.08535 -2.34976,0.406112 -3.06583,0.712796 -1.06046,0.454186 -1.37238,0.472718 -1.68178,0.09992 -0.20891,-0.251727 -0.27817,-0.722641 -0.1539,-1.046476 0.12426,-0.323834 0.40482,-0.524618 0.62345,-0.446185 0.21862,0.07843 0.99249,-0.09071 1.7197,-0.375886 0.72721,-0.28517 1.56642,-0.424777 1.86491,-0.310237 0.29848,0.11454 1.19938,-0.01799 2.002,-0.294518 1.02413,-0.35284 1.65549,-0.397778 2.11718,-0.150692 0.36182,0.193643 0.92968,0.264383 1.2619,0.157199 0.46343,-0.149518 0.61708,-0.646761 0.66008,-2.13621 0.0461,-1.597488 -0.0476,-1.940381 -0.52917,-1.935973 -0.32186,0.003 -2.31867,0.320446 -4.43734,0.705556 -2.11867,0.385109 -4.73804,0.699279 -5.82083,0.698155 -1.08279,-0.0011 -2.92121,-0.158254 -4.08537,-0.349178 -1.45354,-0.238383 -3.11135,-0.222703 -5.29167,0.05005 -1.74625,0.218452 -3.22615,0.439958 -3.28866,0.492237 -0.0625,0.05228 0.32832,0.784738 0.86851,1.627688 0.5402,0.84295 0.94184,1.729925 0.89254,1.971055 -0.0493,0.241131 0.55205,1.383358 1.33634,2.538282 0.7843,1.154925 1.42599,2.211751 1.42599,2.348503 0,0.136752 0.65799,1.375775 1.4622,2.753385 0.8042,1.377609 2.01416,3.457244 2.68879,4.621411 0.67463,1.164166 1.86335,3.307291 2.6416,4.7625 0.77825,1.455208 1.61486,2.883958 1.85913,3.175 0.24426,0.291041 1.31704,2.275416 2.38394,4.409722 1.0669,2.134305 3.56089,6.65868 5.5422,10.054167 1.98131,3.395486 4.26089,7.046736 5.06573,8.113888 0.80485,1.067153 1.91488,2.614966 2.46674,3.439584 0.55186,0.824618 1.07281,1.499305 1.15766,1.499305 0.0849,0 1.06208,-0.305967 2.17162,-0.679929 z m 0.0771,-7.05242 c 0,-0.517468 0.51905,-0.84794 2.20486,-1.403801 1.21268,-0.399853 3.15736,-0.826164 4.32153,-0.947357 1.16417,-0.121193 3.06917,-0.456177 4.23333,-0.744407 1.16417,-0.28823 2.27894,-0.658029 2.47727,-0.821782 0.19832,-0.163748 1.5477,-0.638647 2.99861,-1.055327 1.45091,-0.416684 2.87006,-0.784451 3.15367,-0.817263 0.2836,-0.03281 0.56874,0.195742 0.63363,0.507901 0.0912,0.438817 -0.78595,0.868049 -3.86704,1.892276 -2.19176,0.728595 -5.0169,1.619507 -6.27808,1.979806 -1.26118,0.360303 -3.00743,0.663618 -3.88056,0.674039 -0.87312,0.01041 -2.52495,0.332542 -3.67073,0.715828 -1.14578,0.383283 -2.13796,0.696881 -2.20486,0.696881 -0.0669,0 -0.12163,-0.304557 -0.12163,-0.676794 z m -4.43064,-8.529281 c -0.13143,-0.212647 -0.0217,-0.585124 0.24376,-0.82773 0.26549,-0.242601 1.52578,-0.782993 2.80064,-1.200866 1.27486,-0.417876 2.67496,-0.759774 3.11134,-0.759774 0.62102,0 0.76892,0.17247 0.68069,0.79375 -0.0837,0.588998 -0.38574,0.823334 -1.17107,0.908438 -0.58208,0.06308 -1.99736,0.420268 -3.14507,0.79375 -1.1477,0.373486 -2.13052,0.679062 -2.18404,0.679062 -0.0535,0 -0.20483,-0.173983 -0.33625,-0.38663 z M 54.544093,54.7046 c 0,-0.511917 0.24186,-1.023572 0.53748,-1.137011 0.29562,-0.113438 1.35315,-0.227518 2.35007,-0.253511 1.16708,-0.03043 1.86531,0.109009 1.96064,0.391541 0.0814,0.241341 -0.30142,0.624914 -0.85077,0.852384 -0.54935,0.22747 -1.39569,0.440595 -1.88076,0.473611 -0.48507,0.03302 -1.15975,0.182365 -1.4993,0.331887 -0.50066,0.220469 -0.61736,0.09592 -0.61736,-0.658901 z m 1.55637,39.515569 c -0.53148,-1.085423 -1.02726,-1.912556 -1.10174,-1.838081 -0.0745,0.07447 0.29991,1.023009 0.83197,2.10785 0.53205,1.084841 1.02783,1.911978 1.10173,1.838082 0.0739,-0.0739 -0.30048,-1.022431 -0.83196,-2.107851 z m -6.49526,-13.789462 c 0,-0.09701 -0.0794,-0.176389 -0.17639,-0.176389 -0.097,0 -0.17639,0.07937 -0.17639,0.176389 0,0.09701 0.0794,0.176389 0.17639,0.176389 0.097,0 0.17639,-0.07937 0.17639,-0.176389 z m -1.39224,-3.356829 c -0.55585,-1.555214 -1.51841,-3.618964 -2.13903,-4.586111 -0.62062,-0.967147 -1.17568,-1.758449 -1.23348,-1.758449 -0.0578,0 0.10362,0.693501 0.35872,1.541117 0.25509,0.847612 0.81531,2.236674 1.24493,3.086805 0.42962,0.850128 1.17295,2.220376 1.65185,3.044994 0.47891,0.824619 0.92854,1.499306 0.99919,1.499306 0.0707,0 -0.32633,-1.272448 -0.88218,-2.827662 z m 32.67028,-9.818437 c 1.32673,-0.746464 3.99974,-2.245099 5.94001,-3.330293 1.94028,-1.085198 4.03688,-2.443634 4.65911,-3.018748 0.62223,-0.575114 1.20726,-1.418044 1.30007,-1.873178 0.0928,-0.455133 0.24605,-1.408325 0.34056,-2.118205 0.13957,-1.048336 -0.0369,-1.578265 -0.93973,-2.822222 -0.61136,-0.842343 -1.30639,-1.690283 -1.54451,-1.88431 -0.23812,-0.194028 -0.9012,-1.405699 -1.47351,-2.692603 -0.57232,-1.286903 -1.21559,-2.447983 -1.42948,-2.580178 -0.2139,-0.132195 -1.24118,-1.392806 -2.28286,-2.801359 -1.04167,-1.408553 -1.99458,-2.878068 -2.11758,-3.265589 -0.14881,-0.468858 -0.86324,-0.906206 -2.13545,-1.307233 -1.65926,-0.523036 -2.34618,-0.550702 -5.19977,-0.209425 -1.80838,0.216273 -3.98282,0.697123 -4.83211,1.068556 -0.84928,0.371432 -1.90062,0.675331 -2.33632,0.675331 -0.4836,0 -1.34659,0.601472 -2.21549,1.544115 -1.25448,1.360953 -1.45208,1.812751 -1.66584,3.808795 -0.13339,1.245574 -0.0684,3.994522 0.14436,6.108772 0.21279,2.114251 0.71393,5.009616 1.11366,6.434144 0.39972,1.424528 1.19776,3.510295 1.77341,4.635039 0.57566,1.124744 1.56904,2.55131 2.20752,3.170149 0.73896,0.716231 1.72891,1.236592 2.72381,1.431756 0.85961,0.168624 2.4618,0.323984 3.56041,0.345242 1.70369,0.03298 2.35229,-0.160969 4.40973,-1.318556 z m -5.87804,-3.581679 c 0,-0.194027 0.18642,-0.352777 0.41427,-0.352777 0.22785,0 0.0522,-0.385408 -0.39033,-0.856462 -0.4848,-0.516038 -1.02435,-0.772137 -1.35746,-0.644311 -0.39553,0.151779 -0.49308,0.05637 -0.34279,-0.335272 0.11553,-0.301084 0.0346,-0.722873 -0.17983,-0.93731 -0.21443,-0.214438 -0.27892,-0.500849 -0.1433,-0.63647 0.13562,-0.135622 0.97821,0.506147 1.87241,1.426152 0.90662,0.932784 1.83551,1.592271 2.09985,1.490834 0.26071,-0.100046 0.56804,-0.02979 0.68294,0.15613 0.1149,0.185917 -0.20784,0.496482 -0.71722,0.690146 -0.50938,0.193664 -1.15393,0.352118 -1.43234,0.352118 -0.27841,0 -0.5062,-0.15875 -0.5062,-0.352778 z m 4.3203,0.08819 c 0.0478,-0.145521 -0.36789,-0.859896 -0.92381,-1.5875 -0.55594,-0.727604 -1.23007,-1.322917 -1.49809,-1.322917 -0.26801,0 -0.48729,-0.126859 -0.48729,-0.281909 0,-0.15505 0.54857,-0.480274 1.21904,-0.722721 1.02542,-0.370794 1.38965,-0.352594 2.29306,0.114579 0.76346,0.394798 1.07401,0.811078 1.07401,1.439645 0,0.585997 -0.26773,0.993334 -0.79375,1.20765 -0.79375,0.323396 -0.79375,0.323396 0,0.558943 0.43656,0.129551 0.79375,0.375783 0.79375,0.54718 0,0.171397 -0.39688,0.311633 -0.88194,0.311633 -0.48507,0 -0.84281,-0.119062 -0.79498,-0.264583 z m 0.97136,-2.368838 c 0,-0.284215 -0.33454,-0.695797 -0.74343,-0.914626 -0.51933,-0.277941 -0.85511,-0.286189 -1.11393,-0.02737 -0.25883,0.258825 -0.23439,0.534522 0.0811,0.914626 0.24836,0.299266 0.74963,0.544119 1.11393,0.544119 0.3643,0 0.66236,-0.232539 0.66236,-0.516754 z m 1.99908,-0.07121 c -0.12935,-0.129351 -0.23519,-0.384461 -0.23519,-0.566909 0,-0.182449 0.25245,-0.234851 0.561,-0.116448 0.30856,0.118402 0.74512,0.0957 0.97014,-0.05045 0.23476,-0.152467 -0.19231,-0.340909 -1.00197,-0.442116 -1.11713,-0.139642 -1.41111,-0.32338 -1.41111,-0.881945 0,-0.534512 0.23518,-0.705555 0.97014,-0.705555 0.53357,0 0.93045,0.140564 0.88194,0.312366 -0.0485,0.171801 0.26899,0.444497 0.70556,0.605992 0.44661,0.165214 0.79375,0.590659 0.79375,0.972808 0,0.373549 -0.25111,0.77554 -0.55802,0.893312 -0.30691,0.117773 -0.7567,0.214133 -0.99954,0.214133 -0.24283,0 -0.54735,-0.105834 -0.6767,-0.235186 z m 0.37483,-2.094618 c -0.11723,-0.117225 -0.4215,-0.129758 -0.67616,-0.02785 -0.28142,0.112616 -0.19783,0.196209 0.21313,0.213137 0.37189,0.01532 0.58025,-0.06806 0.46303,-0.185286 z m 2.26672,-0.1751 c -0.64911,-0.590211 -1.08402,-1.169297 -0.96646,-1.286857 0.11756,-0.117561 0.65734,0.211242 1.19951,0.730673 0.54217,0.519432 1.25489,0.944421 1.58382,0.944421 0.32893,0 0.59806,-0.147228 0.59806,-0.327173 0,-0.179945 -0.42111,-0.658419 -0.9358,-1.063274 -0.51469,-0.404855 -0.83642,-0.835483 -0.71495,-0.956951 0.12147,-0.121468 0.84664,0.317317 1.6115,0.975079 0.76485,0.657762 1.40408,1.296477 1.4205,1.419369 0.0164,0.12289 -0.32733,0.31916 -0.76389,0.436155 -0.43656,0.116994 -1.03187,0.21023 -1.32292,0.207192 -0.29104,-0.003 -1.06026,-0.488424 -1.70937,-1.078634 z m 3.39676,-0.813 c -0.72449,-0.90799 -0.85366,-1.284968 -0.52917,-1.544313 0.23611,-0.188704 0.79284,-0.454621 1.23719,-0.590927 0.62943,-0.193085 1.11671,0.03116 2.20587,1.015157 0.76889,0.694643 1.24599,1.262987 1.06022,1.262987 -0.18577,0 -0.75147,-0.413712 -1.25712,-0.919361 -0.50565,-0.505648 -1.0288,-0.809483 -1.16256,-0.675188 -0.13376,0.134294 0.13647,0.551976 0.60052,0.928181 0.46405,0.376205 0.74021,0.787529 0.61368,0.914054 -0.12652,0.126524 -0.70298,-0.22306 -1.28102,-0.776853 -0.57803,-0.553793 -1.17169,-0.885902 -1.31923,-0.73802 -0.14755,0.147882 0.15816,0.635918 0.67936,1.084524 0.5212,0.448607 0.85193,0.911352 0.73495,1.028322 -0.11697,0.116971 -0.30527,0.212669 -0.41846,0.212664 -0.11318,-6e-6 -0.63709,-0.540558 -1.16423,-1.201227 z m -18.9615,-1.106268 c 0.37975,-0.457574 0.2627,-0.738065 -0.73947,-1.772043 -0.65484,-0.675632 -1.38897,-1.152311 -1.63139,-1.059285 -0.24242,0.09303 -0.52431,0.03395 -0.62642,-0.131269 -0.10212,-0.165223 0.0798,-0.402283 0.40431,-0.526801 0.40711,-0.156223 1.09365,0.269699 2.21496,1.374146 0.89373,0.880297 1.89733,1.600541 2.23021,1.600541 0.33289,0 0.60525,0.140235 0.60525,0.311633 0,0.171397 -0.35719,0.407355 -0.79375,0.524349 -0.43657,0.116994 -1.091,0.214885 -1.45431,0.217534 -0.55508,0.004 -0.58852,-0.08199 -0.20939,-0.538805 z m 2.86865,-1.430719 c -0.50247,-0.351943 -0.76351,-0.846862 -0.69586,-1.319313 0.0596,-0.415845 0.39864,-0.81145 0.75353,-0.879122 0.3549,-0.06767 1.10368,0.06684 1.66397,0.298919 0.56028,0.232078 1.11359,0.720966 1.22958,1.086418 0.11599,0.365452 0.11191,0.824629 -0.009,1.020393 -0.12097,0.195764 -0.65152,0.355935 -1.17898,0.355935 -0.52746,0 -1.32087,-0.253454 -1.76314,-0.56323 z m 2.03556,-0.12084 c 0.41975,-0.265607 0.42745,-0.415711 0.045,-0.876543 -0.25382,-0.305829 -0.83892,-0.556054 -1.30023,-0.556054 -0.4976,0 -0.83875,0.208103 -0.83875,0.511637 0,0.281401 0.27781,0.673448 0.61736,0.871217 0.33955,0.197769 0.69674,0.361977 0.79375,0.364906 0.097,0.0029 0.4043,-0.138895 0.68287,-0.315163 z m 2.43254,-0.784171 c -0.0642,-0.453648 -0.47399,-0.981521 -0.91055,-1.173051 -0.43657,-0.191531 -0.79375,-0.469343 -0.79375,-0.617362 0,-0.148018 0.28575,-0.269124 0.635,-0.269124 0.34925,0 0.81167,-0.176667 1.02759,-0.392595 0.21593,-0.215927 0.57468,-0.280062 0.79722,-0.142522 0.28083,0.173563 0.21336,0.389931 -0.22052,0.707198 -0.52945,0.387136 -0.55307,0.543989 -0.15431,1.024466 0.25897,0.312038 0.88004,0.567342 1.38016,0.567342 0.56529,0 0.78251,0.124019 0.57416,0.327814 -0.18432,0.180298 -0.75883,0.432402 -1.27667,0.560231 -0.80059,0.197625 -0.95901,0.108946 -1.05833,-0.592397 z m 2.94993,-1.1995 c -0.51118,-0.361414 -0.77356,-0.857893 -0.70556,-1.335072 0.0766,-0.537103 0.39877,-0.792996 1.09974,-0.873372 0.54531,-0.06253 1.22,0.07597 1.49931,0.307779 0.27931,0.231805 0.50783,0.530131 0.50783,0.662945 0,0.132815 -0.43656,0.413989 -0.97014,0.624832 -0.97013,0.383349 -0.97013,0.383349 -0.0706,0.420878 0.49478,0.02064 1.1055,-0.160909 1.35716,-0.403443 0.37007,-0.356639 0.43361,-0.306039 0.33225,0.264583 -0.0871,0.490444 -0.44711,0.73615 -1.18077,0.805906 -0.58049,0.05519 -1.42166,-0.158573 -1.86926,-0.475036 z m 0.89467,-1.425951 c -0.11723,-0.117225 -0.4215,-0.129758 -0.67616,-0.02785 -0.28142,0.112616 -0.19783,0.196209 0.21314,0.213137 0.37188,0.01532 0.58024,-0.06806 0.46302,-0.185286 z m 2.08704,0.0087 c -1.00711,-1.211804 -1.00711,-1.211804 0.25325,-1.738419 0.6932,-0.289639 1.32049,-0.526616 1.39397,-0.526616 0.0735,0 0.70571,0.555625 1.40496,1.234722 0.69924,0.679097 1.16884,1.234722 1.04356,1.234722 -0.12529,0 -0.67139,-0.424989 -1.21356,-0.94442 -0.54217,-0.519431 -1.08363,-0.846553 -1.20325,-0.726936 -0.11961,0.119616 0.17939,0.614359 0.66446,1.099429 0.48507,0.485069 0.79016,0.973732 0.67797,1.085917 -0.11218,0.112185 -0.73034,-0.306211 -1.37369,-0.929767 -0.64335,-0.623557 -1.16972,-0.968453 -1.16972,-0.766435 0,0.202017 0.3175,0.654638 0.70555,1.005824 0.38806,0.351185 0.70556,0.772664 0.70556,0.93662 0,0.163956 -0.19844,0.28664 -0.44097,0.272632 -0.24254,-0.01401 -0.89418,-0.570781 -1.44809,-1.237274 z m -42.56094,8.847465 c 0,-0.09701 -0.0794,-0.176389 -0.17639,-0.176389 -0.097,0 -0.17639,0.07937 -0.17639,0.176389 0,0.09701 0.0794,0.176389 0.17639,0.176389 0.097,0 0.17639,-0.07937 0.17639,-0.176389 z m 4.38007,-2.028472 c -0.69171,-1.212647 -1.56783,-2.872946 -1.94696,-3.689528 -0.37912,-0.816581 -0.84111,-1.578511 -1.02665,-1.693178 -0.18553,-0.114667 0.21007,0.933764 0.87913,2.329847 0.66905,1.396083 1.62138,3.150201 2.11627,3.89804 0.4949,0.747839 0.97542,1.359707 1.06783,1.359707 0.0924,0 -0.39792,-0.992188 -1.08962,-2.204861 z m -4.73285,0.970139 c 0,-0.09701 -0.0794,-0.176389 -0.17639,-0.176389 -0.097,0 -0.17639,0.07938 -0.17639,0.176389 0,0.09701 0.0794,0.176389 0.17639,0.176389 0.097,0 0.17639,-0.07937 0.17639,-0.176389 z m -0.89798,-2.100632 c -0.30496,-0.72986 -0.65005,-1.231433 -0.76687,-1.114607 -0.11683,0.116826 0.084,0.762717 0.44616,1.435314 0.36222,0.672598 0.70731,1.174171 0.76688,1.114608 0.0596,-0.05956 -0.14122,-0.705455 -0.44617,-1.435315 z m 3.48526,0.248548 c -0.30344,-0.727604 -0.99688,-2.196041 -1.54096,-3.263194 -0.54409,-1.067153 -1.23517,-2.257778 -1.53574,-2.645833 -0.30056,-0.388056 -0.55052,-0.546806 -0.55545,-0.352778 -0.005,0.194028 0.7115,1.773837 1.59209,3.510688 0.88059,1.73685 1.77215,3.364038 1.98124,3.615972 0.20908,0.251934 0.43199,0.458062 0.49535,0.458062 0.0634,0 -0.13308,-0.595313 -0.43653,-1.322917 z m -1.17617,-5.203472 c 0,-0.09701 -0.0794,-0.176389 -0.17639,-0.176389 -0.097,0 -0.17639,0.07937 -0.17639,0.176389 0,0.09701 0.0794,0.176389 0.17639,0.176389 0.097,0 0.17639,-0.07937 0.17639,-0.176389 z m 50.78025,-2.794028 c -0.41585,-1.111464 -1.49434,-2.987396 -2.39664,-4.168739 -0.90231,-1.181342 -2.31524,-2.698239 -3.13986,-3.370882 -0.82462,-0.672643 -1.4993,-1.053099 -1.4993,-0.845459 0,0.207641 0.94987,1.558297 2.11084,3.001459 1.16096,1.443162 2.43495,3.380046 2.83109,4.304186 0.39613,0.92414 1.15281,2.180534 1.68151,2.791986 0.5287,0.611453 1.00789,0.930958 1.06487,0.710012 0.057,-0.220947 -0.23666,-1.3111 -0.65251,-2.422563 z m -53.60247,-2.104509 c 0,-0.07484 -0.23715,-0.590772 -0.52699,-1.146528 -0.527,-1.010463 -0.527,-1.010463 -0.52917,0.136064 -0.002,0.784917 0.16472,1.146528 0.52699,1.146528 0.29104,0 0.52917,-0.06123 0.52917,-0.136064 z m -0.21528,-3.565735 c 0.3,-0.40351 1.29985,-0.542759 4.27222,-0.594996 2.13431,-0.03751 5.78556,-0.02713 8.11389,0.02305 2.94014,0.06337 5.30639,-0.106154 7.74602,-0.55495 3.12337,-0.574579 3.53397,-0.736401 3.70481,-1.460103 0.10568,-0.447649 0.9856,-1.615888 1.95538,-2.596088 0.96978,-0.980198 2.55699,-2.150954 3.52713,-2.601679 0.97013,-0.450725 2.95451,-1.13663 4.40972,-1.524233 2.64583,-0.704732 2.64583,-0.704732 -15.9632,-0.726132 -18.60902,-0.0214 -18.60902,-0.0214 -18.60902,5.270266 0,2.910417 0.10156,5.291667 0.22569,5.291667 0.12413,0 0.40194,-0.23706 0.61736,-0.526799 z"
       id="path1582" /></g></svg>
